<svg width="14" height="14" viewBox="0 0 14 14" fill="none" xmlns="http://www.w3.org/2000/svg">
<path d="M12.7418 0.462775C12.6215 0.289935 12.4594 0.163538 12.256 0.0833573C12.1265 0.0279046 11.9907 0.000129638 11.8488 0.000129638V0H2.15143C2.00957 0 1.87394 0.027775 1.74437 0.0832276C1.54084 0.163344 1.37885 0.289903 1.25858 0.462646C1.13834 0.635388 1.07812 0.82654 1.07812 1.03633V12.9636C1.07812 13.1735 1.13834 13.3646 1.25858 13.5375C1.37885 13.7102 1.54084 13.8367 1.74437 13.9168C1.87381 13.9723 2.00957 14 2.15143 14C2.44146 14 2.69734 13.8981 2.91947 13.6947L7.00015 9.77117L11.0808 13.6948C11.2968 13.8919 11.5528 13.9906 11.8488 13.9906C12.003 13.9906 12.1388 13.9661 12.256 13.9168C12.4594 13.8367 12.6215 13.7102 12.7418 13.5372C12.862 13.3645 12.9221 13.1734 12.9221 12.9636V1.03646C12.9221 0.826669 12.8619 0.635518 12.7418 0.462775ZM11.7378 12.6766L7.82371 8.91987L7.00015 8.13349L6.17666 8.91987L2.26263 12.6766V1.18454H11.7378V12.6766Z" fill="#2B2C30"/>
</svg>
