<svg width="23" height="23" viewBox="0 0 23 23" fill="none" xmlns="http://www.w3.org/2000/svg">
<path fill-rule="evenodd" clip-rule="evenodd" d="M0 10C0 15.5228 4.47715 20 10 20C15.5228 20 20 15.5228 20 10C20 4.47715 15.5228 0 10 0C4.47715 0 0 4.47715 0 10ZM18 10C18 14.4183 14.4183 18 10 18C5.58172 18 2 14.4183 2 10C2 5.58172 5.58172 2 10 2C14.4183 2 18 5.58172 18 10Z" fill="#2B2C30"/>
<path fill-rule="evenodd" clip-rule="evenodd" d="M16.0001 17.4141C15.6096 17.0236 15.6096 16.3904 16.0001 15.9999C16.3906 15.6094 17.0238 15.6094 17.4143 15.9999L21.6569 20.2426C22.0475 20.6331 22.0475 21.2663 21.6569 21.6568C21.2664 22.0473 20.6332 22.0473 20.2427 21.6568L16.0001 17.4141Z" fill="#2B2C30"/>
</svg>
