<svg width="32" height="33" viewBox="0 0 32 33" fill="none" xmlns="http://www.w3.org/2000/svg">
<circle cx="16" cy="16" r="16" fill="#7A8EA5"/>
<g clip-path="url(#clip0_0_1)" filter="url(#filter0_d_0_1)">
<path d="M16.0002 16.0001C17.2427 16.0001 18.3032 15.5605 19.182 14.6817C20.0609 13.8028 20.5004 12.7423 20.5004 11.4999C20.5004 10.2578 20.0609 9.19725 19.182 8.3182C18.3029 7.4394 17.2423 7 16.0002 7C14.758 7 13.6973 7.4394 12.8184 8.3182C11.9395 9.19725 11.5 10.2578 11.5 11.4999C11.5 12.7423 11.9395 13.8028 12.8184 14.6817C13.6975 15.5605 14.7579 16.0001 16.0002 16.0001Z" fill="white"/>
<path d="M24.2092 20.752C24.1817 20.3576 24.127 19.9317 24.0451 19.4746C23.963 19.0175 23.8594 18.5939 23.7344 18.2031C23.6094 17.8126 23.4414 17.4317 23.2304 17.0605C23.0196 16.6894 22.7774 16.3731 22.5038 16.1112C22.2302 15.8495 21.8962 15.6406 21.502 15.4844C21.1073 15.3282 20.6717 15.25 20.1951 15.25C20.1248 15.25 19.9607 15.334 19.7029 15.502C19.4453 15.67 19.1542 15.8575 18.83 16.0646C18.5058 16.2714 18.0837 16.4591 17.5644 16.6268C17.0448 16.7948 16.5234 16.8788 15.9998 16.8788C15.4764 16.8788 14.9549 16.7948 14.4354 16.6268C13.916 16.4591 13.494 16.2714 13.1698 16.0646C12.8456 15.8575 12.5546 15.67 12.2968 15.502C12.0389 15.334 11.875 15.25 11.8046 15.25C11.3281 15.25 10.8925 15.3282 10.498 15.4844C10.1034 15.6406 9.76948 15.8496 9.49599 16.1112C9.22258 16.3731 8.98036 16.6894 8.76951 17.0605C8.55865 17.4317 8.39069 17.8127 8.26566 18.2031C8.14068 18.5939 8.03712 19.0175 7.95511 19.4746C7.87302 19.9317 7.81834 20.3573 7.79096 20.752C7.76363 21.1467 7.75 21.551 7.75 21.9651C7.75 22.9024 8.03523 23.6429 8.60549 24.1859C9.17587 24.7287 9.93375 25 10.879 25H21.1215C22.0667 25 22.8245 24.7287 23.3949 24.1859C23.9655 23.6429 24.2505 22.9026 24.2505 21.9651C24.2505 21.551 24.2368 21.1467 24.2092 20.752Z" fill="white"/>
</g>
<defs>
<filter id="filter0_d_0_1" x="3" y="7" width="26" height="26" filterUnits="userSpaceOnUse" color-interpolation-filters="sRGB">
<feFlood flood-opacity="0" result="BackgroundImageFix"/>
<feColorMatrix in="SourceAlpha" type="matrix" values="0 0 0 0 0 0 0 0 0 0 0 0 0 0 0 0 0 0 127 0" result="hardAlpha"/>
<feOffset dy="4"/>
<feGaussianBlur stdDeviation="2"/>
<feComposite in2="hardAlpha" operator="out"/>
<feColorMatrix type="matrix" values="0 0 0 0 0 0 0 0 0 0 0 0 0 0 0 0 0 0 0.25 0"/>
<feBlend mode="normal" in2="BackgroundImageFix" result="effect1_dropShadow_0_1"/>
<feBlend mode="normal" in="SourceGraphic" in2="effect1_dropShadow_0_1" result="shape"/>
</filter>
<clipPath id="clip0_0_1">
<rect width="18" height="18" fill="white" transform="translate(7 7)"/>
</clipPath>
</defs>
</svg>
