<svg width="25" height="25" viewBox="0 0 25 25" fill="none" xmlns="http://www.w3.org/2000/svg">
<circle cx="12.25" cy="12.5" r="12" fill="#7A8EA5"/>
<g clip-path="url(#clip0_3041_139)">
<path d="M12.2501 12.5001C13.0784 12.5001 13.7855 12.207 14.3713 11.6211C14.9572 11.0352 15.2503 10.3282 15.2503 9.49997C15.2503 8.67187 14.9572 7.96483 14.3713 7.3788C13.7853 6.79293 13.0782 6.5 12.2501 6.5C11.422 6.5 10.7148 6.79293 10.129 7.3788C9.54299 7.96483 9.25 8.67184 9.25 9.49997C9.25 10.3282 9.54299 11.0352 10.129 11.6211C10.715 12.207 11.422 12.5001 12.2501 12.5001Z" fill="white"/>
<path d="M17.7228 15.668C17.7045 15.4051 17.668 15.1211 17.6134 14.8164C17.5587 14.5117 17.4896 14.2293 17.4063 13.9687C17.3229 13.7084 17.2109 13.4544 17.0703 13.207C16.9297 12.9596 16.7683 12.7487 16.5858 12.5742C16.4034 12.3997 16.1808 12.2604 15.918 12.1563C15.6548 12.0522 15.3644 12 15.0467 12C14.9999 12 14.8905 12.056 14.7186 12.168C14.5469 12.28 14.3528 12.405 14.1367 12.5431C13.9205 12.6809 13.6391 12.806 13.2929 12.9179C12.9465 13.0299 12.5989 13.0859 12.2499 13.0859C11.9009 13.0859 11.5533 13.0299 11.2069 12.9179C10.8607 12.806 10.5793 12.6809 10.3632 12.5431C10.147 12.405 9.95306 12.28 9.78122 12.168C9.60929 12.056 9.49997 12 9.45309 12C9.13539 12 8.845 12.0522 8.58201 12.1563C8.31895 12.2604 8.09632 12.3998 7.91399 12.5742C7.73172 12.7487 7.57024 12.9596 7.42967 13.207C7.2891 13.4544 7.17713 13.7085 7.09378 13.9687C7.01045 14.2293 6.94141 14.5117 6.88674 14.8164C6.83201 15.1211 6.79556 15.4049 6.77731 15.668C6.75908 15.9311 6.75 16.2007 6.75 16.4767C6.75 17.1016 6.94015 17.5952 7.32032 17.9572C7.70058 18.3191 8.20583 18.5 8.83603 18.5H15.6643C16.2944 18.5 16.7996 18.3191 17.18 17.9572C17.5603 17.5952 17.7504 17.1017 17.7504 16.4767C17.7503 16.2007 17.7412 15.9311 17.7228 15.668Z" fill="white"/>
</g>
<defs>
<clipPath id="clip0_3041_139">
<rect width="12" height="12" fill="white" transform="translate(6.25 6.5)"/>
</clipPath>
</defs>
</svg>
