<svg width="108" height="17" viewBox="0 0 108 17" fill="none" xmlns="http://www.w3.org/2000/svg">
<g clip-path="url(#clip0_2306_360)">
<path fill-rule="evenodd" clip-rule="evenodd" d="M0 16.1073V1.25513H11.2301V4.16191H3.25418V7.17478H10.273V10.0815H3.25418V13.2005H11.3364V16.1073H0ZM12.9529 16.1073L16.9515 10.3362L13.1018 4.73477H16.5687L18.6956 8.04468L20.8438 4.73477H24.2256L20.3759 10.2725L24.3958 16.1073H20.9289L18.6318 12.564L16.3347 16.1073H12.9529ZM29.5641 16.3195C28.444 16.3195 27.5117 16.0083 26.7673 15.3859C26.0228 14.7635 25.6506 13.9007 25.6506 12.7974C25.6506 11.595 26.0653 10.6898 26.8948 10.0815C27.7243 9.47333 28.841 9.16923 30.2447 9.16923C31.1948 9.16923 32.1235 9.32478 33.031 9.63598V9.44503C33.031 8.05883 32.2157 7.36573 30.5851 7.36573C29.6067 7.36573 28.5574 7.57083 27.4372 7.98103L26.629 5.51983C28.0186 4.91158 29.4932 4.60747 31.053 4.60747C32.7687 4.60747 34.0519 5.03183 34.9027 5.88053C35.7251 6.70093 36.1363 7.91028 36.1363 9.50868V16.1073H33.0098V14.8767C32.1448 15.8385 30.9963 16.3195 29.5641 16.3195ZM30.5425 14.0916C31.2941 14.0916 31.9038 13.9042 32.3717 13.5294C32.8396 13.1545 33.0736 12.6771 33.0736 12.0972V11.5243C32.4639 11.2414 31.7761 11.1 31.0105 11.1C30.3015 11.1 29.752 11.2379 29.3621 11.5137C28.9722 11.7895 28.7772 12.1891 28.7772 12.7125C28.7772 13.1368 28.9403 13.4728 29.2663 13.7203C29.5925 13.9679 30.0179 14.0916 30.5425 14.0916ZM38.9226 16.1073V4.73477H42.1555V6.34728C43.1055 5.13083 44.2256 4.5226 45.516 4.5226C47.0332 4.5226 48.1037 5.12378 48.7276 6.32608C49.7627 5.12378 51.0105 4.5226 52.471 4.5226C53.6905 4.5226 54.637 4.87976 55.3105 5.59408C55.984 6.30838 56.3205 7.34453 56.3205 8.70243V16.1073H53.088V9.76328C53.088 8.22148 52.457 7.45058 51.195 7.45058C50.585 7.45058 50.1065 7.64863 49.7592 8.04468C49.4118 8.44073 49.2381 9.01363 49.2381 9.76328V16.1073H46.0052V9.76328C46.0052 8.22148 45.3742 7.45058 44.1123 7.45058C43.5025 7.45058 43.024 7.64863 42.6766 8.04468C42.3292 8.44073 42.1555 9.01363 42.1555 9.76328V16.1073H38.9226Z" fill="#2B2C30"/>
<path d="M64.4274 16.5H68.1234V3.10795H73.2354V-0.300049H59.3154V3.10795H64.4274V16.5ZM79.2589 16.788C81.5869 16.788 83.3149 15.876 84.5149 14.388L82.4269 12.54C81.4189 13.476 80.5309 13.86 79.3069 13.86C77.6749 13.86 76.5229 12.996 76.1629 11.34H85.1149C85.1389 11.004 85.1629 10.668 85.1629 10.38C85.1629 6.73195 83.1949 3.39595 78.8989 3.39595C75.1549 3.39595 72.5389 6.41995 72.5389 10.092C72.5389 14.076 75.3949 16.788 79.2589 16.788ZM76.1149 9.05995C76.4029 7.40395 77.3869 6.32395 78.8989 6.32395C80.4349 6.32395 81.3949 7.42795 81.6109 9.05995H76.1149ZM92.3934 16.74C95.1774 16.74 97.3134 15.444 97.3134 12.588C97.3134 10.188 95.2254 9.32395 93.4254 8.72395C92.0334 8.24395 90.8094 7.90795 90.8094 7.18795C90.8094 6.63595 91.2654 6.25195 92.1534 6.25195C93.0894 6.25195 94.3614 6.70795 95.6334 7.45195L97.0254 4.93195C95.6334 3.99595 93.8574 3.44395 92.2254 3.44395C89.6334 3.44395 87.5214 4.90795 87.5214 7.52395C87.5214 10.068 89.5614 10.908 91.3614 11.436C92.7774 11.868 94.0254 12.132 94.0254 12.924C94.0254 13.548 93.5454 13.932 92.4894 13.932C91.2894 13.932 89.8254 13.404 88.4334 12.396L86.8734 14.796C88.5774 16.14 90.5934 16.74 92.3934 16.74ZM104.038 16.716C105.262 16.716 106.15 16.428 106.918 15.972V13.044C106.39 13.332 105.79 13.5 105.118 13.5C104.302 13.5 103.942 13.092 103.942 12.252V6.75595H106.966V3.63595H103.942V0.347951H100.294V3.63595H98.7579V6.75595H100.294V12.852C100.294 15.828 101.806 16.716 104.038 16.716Z" fill="url(#paint0_linear_2306_360)"/>
</g>
<defs>
<linearGradient id="paint0_linear_2306_360" x1="83.4994" y1="-2.00005" x2="83.4994" y2="21" gradientUnits="userSpaceOnUse">
<stop stop-color="#3083E7"/>
<stop offset="1" stop-color="#594CC3"/>
</linearGradient>
<clipPath id="clip0_2306_360">
<rect width="108" height="17" fill="white"/>
</clipPath>
</defs>
</svg>
